PathFileType	4	(X/Y/Z)	/Users/itak/Documents/Research/Walk-IL/dataset/trc/00136_00007.trc
DataRate	CameraRate	NumFrames	NumMarkers	Units	OrigDataRate	OrigDataStartFrame	OrigNumFrames
100.000000	100.000000	4	53	mm	100.000000	555	740
Frame#	Time	RPSI			LPSI			L3			STRN			T10			C7			CLAV			RBAK			LBAK			LSHO			LUPA			LAEL			LAOL			LWTS			LWPS			LFRA			LIFD			LHPS			LHTS			RSHO			RUPA			RAEL			RAOL			RWTS			RWPS			RFRA			RIFD			RHTS			RHPS			RBHD			LFHD			RFHD			LBHD			LHIP			RHIP			RASI			LASI			LKNE			LTHI			LANK			LTIP			LTOE			LMT1			LMT5			LHEE			RKNE			RTHI			RANK			RTIP			RTOE			RMT1			RMT5			RHEE			
		X1	Y1	Z1	X2	Y2	Z2	X3	Y3	Z3	X4	Y4	Z4	X5	Y5	Z5	X6	Y6	Z6	X7	Y7	Z7	X8	Y8	Z8	X9	Y9	Z9	X10	Y10	Z10	X11	Y11	Z11	X12	Y12	Z12	X13	Y13	Z13	X14	Y14	Z14	X15	Y15	Z15	X16	Y16	Z16	X17	Y17	Z17	X18	Y18	Z18	X19	Y19	Z19	X20	Y20	Z20	X21	Y21	Z21	X22	Y22	Z22	X23	Y23	Z23	X24	Y24	Z24	X25	Y25	Z25	X26	Y26	Z26	X27	Y27	Z27	X28	Y28	Z28	X29	Y29	Z29	X30	Y30	Z30	X31	Y31	Z31	X32	Y32	Z32	X33	Y33	Z33	X34	Y34	Z34	X35	Y35	Z35	X36	Y36	Z36	X37	Y37	Z37	X38	Y38	Z38	X39	Y39	Z39	X40	Y40	Z40	X41	Y41	Z41	X42	Y42	Z42	X43	Y43	Z43	X44	Y44	Z44	X45	Y45	Z45	X46	Y46	Z46	X47	Y47	Z47	X48	Y48	Z48	X49	Y49	Z49	X50	Y50	Z50	X51	Y51	Z51	X52	Y52	Z52	X53	Y53	Z53	

556	5.55	695.746337890625	1108.681030273438	62.622802734375	828.0906982421875	1111.555786132812	32.92404556274414	761.0526733398438	1144.154907226562	40.03557586669922	799.9353637695312	1352.0205078125	252.6989135742188	746.4149780273438	1295.232177734375	5.771536350250244	754.575439453125	1588.228393554688	29.37713623046875	790.1676635742188	1485.329345703125	211.7113037109375	663.908447265625	1400.284057617188	1.140145182609558	853.1908569335938	1572.168334960938	0.1017486304044724	939.6021118164062	1563.053344726562	68.84977722167969	1005.448791503906	1432.541259765625	31.99326324462891	1033.650756835938	1214.534057617188	32.30365753173828	959.18212890625	1200.86328125	-13.05786991119385	1028.91650390625	954.0581665039062	135.6875457763672	1030.523559570312	930.0962524414062	49.71393203735352	1045.129028320312	1098.170166015625	44.2327995300293	1009.529663085938	761.7457885742188	150.0650787353516	1039.729858398438	854.3519897460938	76.08937835693359	1044.222045898438	863.62353515625	145.0268249511719	591.1888427734375	1566.242431640625	121.7796096801758	525.884765625	1491.58544921875	120.707145690918	505.7678527832031	1195.237060546875	137.8735809326172	600.3117065429688	1192.0205078125	111.3167877197266	555.0029296875	995.4219360351562	331.6387329101562	514.7164306640625	958.3361206054688	269.7283630371094	498.474609375	1128.463256835938	179.1339263916016	591.2047119140625	817.0752563476562	403.7290344238281	560.072265625	899.5169067382812	389.7255554199219	524.6544189453125	872.19775390625	332.6153869628906	680.6305541992188	1763.049438476562	91.70528411865234	813.578369140625	1818.745727539062	258.8955078125	685.8550415039062	1806.630493164062	264.9631042480469	814.7845458984375	1781.091186523438	78.56792449951172	956.7777709960938	1029.986938476562	109.9183349609375	610.4722290039062	1013.065063476562	211.5704650878906	674.694580078125	1089.598999023438	281.8307800292969	931.3311157226562	1099.650756835938	218.2017822265625	984.94287109375	550.105712890625	298.1538696289062	994.937744140625	688.6989135742188	223.2684936523438	1004.272338867188	100.3113708496094	15.6732063293457	1009.414794921875	342.8708190917969	117.1383972167969	1034.592529296875	49.16375732421875	236.0431823730469	973.5133666992188	57.29136276245117	180.1480865478516	1069.550537109375	67.89604949951172	115.7942657470703	923.1146850585938	107.9658813476562	-26.02290534973145	704.820068359375	524.00927734375	180.5785980224609	644.86669921875	798.6038818359375	222.161376953125	778.496337890625	26.80960083007812	67.55213165283203	709.9974365234375	389.9859008789062	155.6175231933594	869.61767578125	35.85397338867188	288.8492126464844	900.1780395507812	30.09871673583984	220.6546936035156	781.2566528320312	40.60055923461914	203.1908874511719	816.6145629882812	26.7678165435791	4.945010185241699	
557	5.56	699.0361938476562	1108.440307617188	68.97248077392578	831.8197021484375	1111.576782226562	41.47708129882812	764.56787109375	1143.987182617188	47.33373641967773	800.050048828125	1351.756225585938	260.5591125488281	749.638427734375	1294.994873046875	13.49510288238525	757.8944091796875	1588.032470703125	36.73287200927734	791.1551513671875	1485.083129882812	219.4849090576172	667.3009033203125	1400.271484375	7.301687717437744	856.7975463867188	1571.830810546875	8.652934074401855	942.3784790039062	1562.614868164062	78.34815979003906	1008.585266113281	1432.111938476562	42.10471725463867	1036.710571289062	1214.137451171875	42.29549026489258	962.7786865234375	1200.569091796875	-3.928223371505737	1030.903686523438	953.4801025390625	145.1039276123047	1033.454833984375	929.6884765625	59.10127258300781	1048.103881835938	1097.755981445312	54.12718963623047	1011.513000488281	761.1434326171875	158.8961486816406	1042.408569335938	853.9087524414062	85.39738464355469	1046.152465820312	863.0354614257812	154.4235076904297	593.3914184570312	1566.372436523438	127.1675186157227	528.05419921875	1491.76904296875	125.4374618530273	507.477783203125	1195.310302734375	143.1233978271484	602.0711669921875	1192.031127929688	117.1906204223633	556.0061645507812	997.5382080078125	339.1824035644531	516.076416015625	959.6817016601562	277.5109558105469	500.0552062988281	1128.638061523438	184.95947265625	592.2987670898438	820.0960083007812	413.4590148925781	560.9354858398438	902.3092041015625	398.3625793457031	526.9871826171875	874.0401000976562	341.7520446777344	683.6190185546875	1763.1728515625	98.88385009765625	815.2708740234375	1818.06689453125	267.2945556640625	687.4708862304688	1806.287353515625	272.2283630371094	817.9000244140625	1780.9189453125	86.88051605224609	959.3431396484375	1030.21484375	120.7007904052734	611.235107421875	1012.593444824219	216.3080444335938	674.2767944335938	1089.381103515625	288.1357116699219	931.97607421875	1099.841064453125	228.3771820068359	984.4213256835938	552.42626953125	314.2721862792969	996.0809326171875	690.0079956054688	237.7867736816406	1012.031555175781	93.42987823486328	48.01668548583984	1014.026245117188	339.6692199707031	140.6869049072266	1036.254638671875	50.98919677734375	271.0057678222656	976.753662109375	56.5808219909668	213.0946502685547	1074.58203125	65.0858154296875	151.0840454101562	932.1773681640625	99.56209564208984	3.698381423950195	705.458740234375	523.7545776367188	183.4263458251953	645.43359375	798.2122192382812	226.2257843017578	778.6096801757812	26.96277236938477	67.52298736572266	710.7255859375	389.8193664550781	157.7121276855469	869.8364868164062	35.70670700073242	289.0191955566406	900.3944702148438	30.02143859863281	220.8977203369141	781.2538452148438	40.70273208618164	203.1919860839844	816.6395263671875	26.95805740356445	4.920936584472656	
558	5.57	702.3191528320312	1108.1728515625	75.34461212158203	835.491943359375	1111.560424804688	50.06524658203125	768.055419921875	1143.806640625	54.65402603149414	800.1520385742188	1351.462646484375	268.4089050292969	752.8056640625	1294.712646484375	21.23326110839844	761.177978515625	1587.775390625	44.07600402832031	792.1109008789062	1484.799438476562	227.2434997558594	670.702880859375	1400.195434570312	13.46522521972656	860.3630981445312	1571.447143554688	17.2111644744873	945.0862426757812	1562.14453125	87.85604095458984	1011.669494628906	1431.646850585938	52.2765998840332	1039.760986328125	1213.73095703125	52.41509246826172	966.36181640625	1200.222778320312	5.35594367980957	1032.950073242188	952.84716796875	154.6056976318359	1036.409545898438	929.256591796875	68.57576751708984	1051.079833984375	1097.328857421875	64.13632202148438	1013.556579589844	760.4779663085938	167.7460021972656	1045.117431640625	853.4274291992188	94.75981140136719	1048.144653320312	862.387939453125	163.8685302734375	595.5714111328125	1566.443359375	132.5353698730469	530.2213134765625	1491.884155273438	130.1356964111328	509.2379455566406	1195.323974609375	148.2434997558594	603.874267578125	1192.0009765625	122.9658584594727	557.0056762695312	999.4449462890625	346.4210815429688	517.4284057617188	960.8935546875	284.9411010742188	501.6640014648438	1128.727416992188	190.5952911376953	593.325927734375	822.839599609375	422.6859741210938	561.757568359375	904.8385009765625	406.5861206054688	529.1458129882812	875.720703125	350.419921875	686.5540771484375	1763.263549804688	106.0610046386719	816.9325561523438	1817.335693359375	275.6617126464844	689.0593872070312	1805.904663085938	279.4801940917969	820.9494018554688	1780.703735351562	95.17472839355469	961.8265380859375	1030.392578125	131.4352874755859	611.9877319335938	1012.114929199219	221.0271453857422	673.892333984375	1089.181762695312	294.3201293945312	932.5352172851562	1099.9208984375	238.5397186279297	983.7355346679688	554.6535034179688	330.0084533691406	997.0460815429688	691.2496948242188	252.0463256835938	1018.81396484375	86.9317626953125	80.62136840820312	1018.164978027344	336.5599365234375	164.2891082763672	1036.437622070312	52.92207717895508	305.681396484375	978.6627197265625	56.12778091430664	245.8479461669922	1078.326904296875	62.44156265258789	186.4497680664062	940.4246826171875	91.74800109863281	33.66167831420898	706.1576538085938	523.4837646484375	186.4304046630859	646.0221557617188	797.8087158203125	230.3497009277344	778.7299194335938	27.13374328613281	67.49461364746094	711.4921264648438	389.6117248535156	159.9341430664062	870.0296020507812	35.55588531494141	289.1841735839844	900.583251953125	29.90374183654785	221.0702209472656	781.25634765625	40.80256271362305	203.1949615478516	816.7073974609375	27.1807975769043	4.899414539337158	
559	5.58	705.5885009765625	1107.891235351562	81.73854827880859	839.1068115234375	1111.483154296875	58.67139053344727	771.5128173828125	1143.60693359375	62.01097106933594	800.2470092773438	1351.139526367188	276.2510070800781	755.94873046875	1294.382690429688	28.9616641998291	764.4244995117188	1587.458984375	51.42022705078125	793.044189453125	1484.478393554688	234.9971313476562	674.1107788085938	1400.057983398438	19.63718795776367	863.8860473632812	1571.020629882812	25.78014373779297	947.728271484375	1561.640502929688	97.37783050537109	1014.699645996094	1431.1455078125	62.50857162475586	1042.800170898438	1213.307983398438	62.66429138183594	969.9347534179688	1199.825561523438	14.78133296966553	1035.044311523438	952.1663818359375	164.1997985839844	1039.388427734375	928.8005981445312	78.14686584472656	1054.055053710938	1096.883422851562	74.26676177978516	1015.644104003906	759.7577514648438	176.6295623779297	1047.8544921875	852.9099731445312	104.1937026977539	1050.18212890625	861.6859741210938	173.3777160644531	597.7318725585938	1566.456176757812	137.8936920166016	532.3867797851562	1491.9306640625	134.8118743896484	511.0508728027344	1195.278564453125	153.2522888183594	605.73681640625	1191.92236328125	128.6526947021484	557.9906616210938	1001.125244140625	353.3607482910156	518.783203125	961.958740234375	292.0253601074219	503.3004455566406	1128.741821289062	196.0525970458984	594.2698974609375	825.2758178710938	431.4193420410156	562.5364990234375	907.081787109375	414.4048156738281	531.0183715820312	877.2520751953125	358.5881958007812	689.4371948242188	1763.316284179688	113.2301406860352	818.5584106445312	1816.564086914062	283.9973754882812	690.616455078125	1805.486450195312	286.7189636230469	823.9342651367188	1780.444580078125	103.4500350952148	964.2401123046875	1030.51904296875	142.1207275390625	612.7368774414062	1011.629089355469	225.7352294921875	673.5307006835938	1089.005249023438	300.3193664550781	933.00341796875	1099.859497070312	248.6975555419922	982.9044189453125	556.7799682617188	345.3420104980469	997.851806640625	692.4164428710938	266.0306701660156	1024.603637695312	80.86437225341797	113.3835601806641	1021.8046875	333.5753479003906	187.8889465332031	1035.2138671875	54.95933532714844	339.9578247070312	979.31689453125	55.95254135131836	278.2913208007812	1080.807983398438	60.01063537597656	221.7798919677734	947.80419921875	84.50464630126953	63.80013656616211	706.9367065429688	523.1945190429688	189.6146545410156	646.6420288085938	797.3834228515625	234.5440063476562	778.8633422851562	27.33261299133301	67.47319793701172	712.3269653320312	389.3577575683594	162.3005981445312	870.1839599609375	35.40129089355469	289.3433227539062	900.7304077148438	29.72165298461914	221.1349792480469	781.2891235351562	40.89662170410156	203.207763671875	816.8173828125	27.4361629486084	4.885270595550537	
